<svg xmlns="http://www.w3.org/2000/svg" viewBox="0 0 864 864" xml:space="preserve"><g fill="#B00020"><path d="M801.613 503.87c.466-2.532.882-4.902 1.243-7.035l-1.243 7.035z"/><path d="M816.94 563.832c-1.006-3.289-.443-8.975.942-20.056l-2.3 8.196c-.824 2.797-1.808 5.623-2.73 8.538l-2.875 8.905c-.994 3.018-2.203 6.015-3.32 9.093l-3.482 9.319-3.973 9.33c-1.371 3.119-2.65 6.308-4.137 9.409l-4.564 9.283c-6.122 12.381-13.224 24.266-20.538 35.156-1.75 2.776-3.756 5.324-5.63 7.895a610.898 610.898 0 0 1-5.648 7.479l-1.396 1.807-1.464 1.722-2.9 3.363a385.908 385.908 0 0 1-5.664 6.371l-7.25-5.886a316.823 316.823 0 0 1 4.75-6.818l2.529-3.494 1.3-1.766 1.244-1.838 5.174-7.483c1.75-2.543 3.662-5.037 5.348-7.737 7.051-10.586 14.352-21.85 20.82-33.626 1.614-2.947 3.23-5.894 4.84-8.831 1.584-2.953 2.96-5.998 4.426-8.979 1.433-2.995 2.878-5.967 4.24-8.94l3.682-8.98c1.17-2.976 2.412-5.88 3.414-8.818a484.5 484.5 0 0 0 2.82-8.696c.875-2.856 1.778-5.637 2.483-8.399.662-2.775 1.27-5.487 1.817-8.125l-11.998-3.405c-.749-.213-.956-1.618-.762-3.908.194-2.29.842-5.45 1.459-9.276.681-3.81 1.599-8.218 2.632-12.927l1.385-7.84c-1.746 9.492-4.245 21.42-7.712 33.112-4.036 14.915-9.618 29.343-13.464 38.871l-11.509-4.77c-1.44-.603-.353-5.491 1.99-12.495.627-1.737 1.15-3.674 1.786-5.692l2.022-6.339c.693-2.2 1.523-4.439 2.188-6.769l2-7.07c-2.992-.866-4.664-6.38-6.65-9.356-2.012-3.003-4.247-3.496-8.333 5.104a327.792 327.792 0 0 1-19.932 52.6 201.519 201.519 0 0 0 13.823-47.115c1.985-13.925 2.176-25.662 1.151-35.068-.552-4.712-1.239-8.814-2.062-12.326-.995-3.539-2.071-6.479-3.194-8.838-2.245-4.72-4.676-7.121-7.002-7.361.218 4.342-.19 7.56-.91 10.173-.711 2.615-1.726 4.633-2.927 6.598-1.15 1.975-2.293 3.93-3.138 6.463a24.652 24.652 0 0 0-1.006 4.316c-.237 1.638-.536 3.462-.614 5.614l.218-4.818-.065-4.827-.176-9.42c-.171-3.09-.48-6.125-.725-9.045l-.399-4.302-.204-2.087-.324-2.054a380.03 380.03 0 0 0-1.324-7.704l-.667-3.51-.34-1.661-.434-1.604c-1.153-4.185-2.279-7.642-3.374-10.182-.552-1.304-1.077-2.234-1.63-3.177-.556-.978-1.098-1.65-1.621-1.98-1.046-.662-2.02.037-2.895 2.37-1.953 3.711-3.141 12.551-5.331 27.968a270.153 270.153 0 0 1-30.7 96.339c-16.136 29.795-37.989 56.569-63.977 78.394-25.971 21.85-56.028 38.706-88.11 49.336-32.063 10.67-66.22 15.101-100.317 13.207-33.986-1.836-67.324-10.367-98.057-24.802-30.73-14.425-58.788-34.863-82.095-59.833-23.33-24.947-41.861-54.375-54.158-86.208-12.34-31.827-18.412-66.046-17.96-100.583.4-34.477 7.386-68.625 20.685-100.375 13.257-31.747 32.796-61.037 57.167-85.695 24.347-24.68 53.477-44.682 85.296-58.468a269.547 269.547 0 0 1 49.453-16.006c16.98-3.705 34.353-5.77 51.866-6.184 35.04-.86 69.984 4.894 102.691 17.128 32.707 12.188 63.134 30.82 89.068 54.51 25.956 23.663 47.374 52.337 62.638 83.936 15.26 31.6 24.527 66.054 26.786 101.252.411 1.992.555 3.821.838 5.47.256 1.65.523 3.13.798 4.454.55 2.651 1.136 4.669 1.74 6.209 1.121 3.73 2.387 4.97 3.75 4.965 2.727-.011 5.842-5.002 8.958-5.002-.093-17.034-1.777-33.99-4.792-50.387-3.012-16.4-7.282-32.273-12.678-47.18-5.328-14.932-11.43-29.008-17.79-42.15-3.415-6.44-6.42-12.916-9.856-18.905l-2.423-4.544-1.18-2.258-1.27-2.175a331.672 331.672 0 0 1-4.834-8.633c-1.207-1.776-1.941-2.903-2.106-3.708-.178-.794.143-1.213.813-1.386 1.317-.331 4.134.25 6.927.919 5.65 1.237 12.16 2.324 9.415-6.935-1.269-1.898-2.947-3.847-4.641-6.051l-5.501-7.011c-2.012-2.407-4.197-4.855-6.38-7.398l-3.315-3.838c-1.106-1.294-2.341-2.484-3.508-3.736-2.36-2.48-4.722-4.958-7.034-7.385-2.375-2.365-4.793-4.586-7.051-6.765-4.452-4.432-8.886-8.038-12.313-11.056-1.918-4.785-1.362-7.327.575-8.754 1.947-1.449 5.197-1.686 8.518-1.91 6.596-.467 13.528-.648 9.076-10.69-.559-1.257-1.338-2.624-2.312-4.088-.975-1.462-2.236-2.91-3.623-4.49a114.014 114.014 0 0 0-4.687-4.916c-1.729-1.69-3.54-3.525-5.628-5.195a314.593 314.593 0 0 0-6.493-5.264c-2.275-1.775-4.583-3.667-7.116-5.336l-7.653-5.201-3.915-2.615-4.059-2.425c-5.427-3.22-10.81-6.53-16.234-9.28l-7.852-4.228c-2.544-1.383-5.105-2.53-7.496-3.765-9.537-5.009-17.605-8.716-21.784-12.103l-2.465-1.271-2.292-1.078-3.947-1.924c-2.355-1.182-4.163-2.166-5.465-2.965-2.605-1.6-3.187-2.463-2.096-2.71 1.091-.248 3.856.12 7.926.983 2.035.432 4.396.988 7.036 1.653 2.635.678 5.477 1.662 8.583 2.65 3.091 1.023 6.432 2.1 9.911 3.356l10.784 4.351c1.862.782 3.788 1.516 5.68 2.387l5.727 2.713 5.843 2.8c1.968.937 3.949 1.887 5.866 2.978 15.7 8.096 30.993 18.276 43.592 27.627-1.567-2.263-2.343-3.425-2.3-3.963.026-.519.804-.324 2.128.382 2.586 1.496 7.25 5.179 12.436 9.256l1.961 1.551 1.921 1.654 3.86 3.283c2.556 2.15 5.05 4.184 7.3 5.88 4.354 3.547 7.746 5.746 8.831 4.615 2.15-2.254 4.311-4.5 5.436-7.665 1.102-3.146 1.252-7.306-.93-13.22-1.128-2.918-2.825-6.295-5.249-10.25-1.222-1.966-2.585-4.126-4.227-6.354a185.166 185.166 0 0 0-5.659-7.05c-2.124-2.492-4.424-5.222-7.08-7.996a376.155 376.155 0 0 0-8.885-8.687c-1.632-1.517-3.285-3.152-5.104-4.7l-5.698-4.76c-3.973-3.23-8.169-6.792-12.968-10.116-9.294-7.153-7.868-9.905-3.572-11.49 4.275-1.595 11.466-1.945 13.06-4.619C602.164 38.556 527.364 18.037 452.266 18c-18.757.255-37.613 1.119-56.337 3.87-9.393 1.06-18.676 3.006-27.994 4.69-4.643.936-9.241 2.108-13.86 3.174l-6.918 1.655c-2.305.554-4.569 1.276-6.854 1.911l-13.668 3.988c-4.51 1.478-8.989 3.057-13.477 4.605l-6.723 2.35-6.615 2.642c-4.4 1.782-8.822 3.52-13.189 5.38-8.61 4.002-17.337 7.768-25.67 12.321l-6.302 3.309c-2.1 1.105-4.207 2.193-6.237 3.423l-12.262 7.211-3.053 1.821-2.979 1.94-5.946 3.893c-3.95 2.616-7.953 5.15-11.739 7.997l-11.463 8.373c-3.753 2.877-7.398 5.893-11.085 8.85l-5.5 4.466-5.307 4.695c-3.517 3.15-7.076 6.25-10.523 9.468-6.725 6.618-13.585 13.085-19.855 20.117-25.712 27.52-47.147 58.713-64.21 91.784C50.607 308.3 36.41 383.198 42.239 453.665c2.178 29.408 7.07 59.39 15.423 88.992 8.366 29.587 19.987 58.791 34.83 86.685 29.725 55.723 72.94 105.932 125.793 143.315l4.926 3.537c1.655 1.16 3.372 2.231 5.057 3.348l10.172 6.61c1.679 1.128 3.44 2.123 5.18 3.15l5.235 3.062 5.241 3.05c1.745 1.02 3.49 2.039 5.296 2.947l10.752 5.592c1.8.913 3.572 1.886 5.4 2.741l5.497 2.535 11.007 5.023c3.712 1.567 7.469 3.025 11.204 4.526 7.43 3.113 15.08 5.597 22.675 8.185 3.779 1.353 7.645 2.413 11.493 3.517l11.542 3.267c3.876.956 7.77 1.826 11.65 2.725l5.82 1.324 2.91.649 2.932.526 11.713 2.058c1.952.326 3.896.695 5.85.977l5.873.732c31.297 4.067 62.481 4.279 92.709.929 3.786-.308 7.538-.91 11.28-1.469l11.184-1.713c1.862-.257 3.699-.666 5.538-1.036l5.504-1.135 10.936-2.323 10.748-2.84 5.335-1.44c1.776-.477 3.547-.952 5.285-1.545l10.42-3.398c3.455-1.139 6.902-2.248 10.252-3.61a627.47 627.47 0 0 1 12.769-4.761c2.226-.755 4.412-1.728 6.669-2.609l6.848-2.72 7.032-2.767 7.078-3.085 7.223-3.127c1.211-.53 2.44-1.039 3.652-1.592l3.613-1.74c19.516-8.955 39.289-20.082 57.282-32.563 2.252-1.556 4.513-3.082 6.713-4.666l6.416-4.918c4.215-3.303 8.45-6.468 12.28-9.96 3.884-3.425 7.688-6.786 11.271-10.186a430.072 430.072 0 0 0 9.999-10.367c3.226-3.34 5.991-6.906 8.674-10.267a238.512 238.512 0 0 0 3.834-5.012c1.223-1.65 2.417-3.253 3.447-4.928 2.11-3.303 3.996-6.496 5.632-9.56 1.633-3.064 3.052-5.97 4.027-8.864a402.97 402.97 0 0 1-47.673 49.298c5.826-6.386 11.272-13.071 17.007-19.394 2.822-3.207 5.505-6.54 8.305-9.747l4.187-4.818c1.42-1.583 2.701-3.289 4.068-4.917a887.299 887.299 0 0 1 8.154-9.8c2.671-3.302 5.243-6.685 7.895-10.003l3.967-4.989c1.308-1.673 2.526-3.415 3.799-5.118l7.587-10.258 7.192-10.552 3.585-5.293 3.36-5.437 6.656-10.934a932.813 932.813 0 0 0 6.093-11.265l2.994-5.666 2.711-5.806c1.79-3.88 3.55-7.775 5.27-11.686a579.919 579.919 0 0 0 4.531-11.993l2.16-6.03 1.826-6.146c-2.946-1.022-5.148-1.803-6.094-5.08z"/></g></svg>